<svg id="Laag_1" data-name="Laag 1" xmlns="http://www.w3.org/2000/svg" viewBox="0 0 226.781 319.479"><path d="M162.472,64.239,108.919,44.12a34.551,34.551,0,0,0-44.5,20.194L44.3,117.867a34.551,34.551,0,0,0,20.194,44.5l53.553,20.119a34.552,34.552,0,0,0,44.5-20.194l20.119-53.553A34.552,34.552,0,0,0,162.472,64.239Zm-88,70.014,15.713-41.9L107.858,113.9l17.674-21.551,15.713,41.9Zm72.857-31.807a9.822,9.822,0,1,1,9.822-9.822A9.823,9.823,0,0,1,147.329,102.446Z"/><rect x="83.986" y="212.58" width="7.064" height="20.637"/><path d="M87.458,210.473c2.825,0,4.439-1.5,4.439-4.257,0-2.636-1.614-4.1-4.439-4.1-2.785,0-4.358,1.46-4.358,4.1C83.1,208.972,84.632,210.473,87.458,210.473Z"/><path d="M105.457,234.96c-1.936,0-3.552-.324-3.995-2.432L94.641,235.2c.848,3.366,5.086,5.312,10.372,5.312,7.064,0,11.261-4.055,11.261-11.109V212.58h-7.023v4.176a7.131,7.131,0,0,0-6.9-4.541c-4.924,0-7.709,3.852-7.709,9.649,0,5.92,2.906,9.893,7.991,9.893a6.871,6.871,0,0,0,6.619-4.257v3.65C109.251,233.906,107.8,234.96,105.457,234.96Zm.082-9.365c-2.584,0-3.794-1.136-3.794-3.608,0-2.514,1.21-3.609,3.753-3.609,2.663,0,3.915,1.1,3.915,3.609C109.413,224.459,108.2,225.6,105.539,225.6Z"/><path d="M128.178,222.959c0-3.081,1.211-4.337,3.31-4.337,2.018,0,2.905.932,2.905,3.081v11.514h7.1V221.3c0-6.2-2.26-9.122-7.144-9.122-3.189,0-5.207,1.541-6.175,4.825V204.837h-7.064v28.38h7.064Z"/><path d="M159.7,233.217v-6.2h-5.087v-8.231h5.45v-6.2h-5.45v-5.8h-7.062v5.8h-3.431v6.2h3.431v6.69c0,4.663,3.067,7.744,7.709,7.744Z"/><path d="M177.171,212.58l-3.108,10.866-.969,3.933-.887-3.933L169.3,212.58h-7.587l7.506,21.326h-5.69v6.2h4c5.732,0,8.194-2.149,9.525-5.878L184.8,212.58Z"/><rect x="52.187" y="249.641" width="7.064" height="20.637"/><path d="M55.658,239.18c-2.785,0-4.359,1.46-4.359,4.1,0,2.756,1.534,4.257,4.359,4.257s4.44-1.5,4.44-4.257C60.1,240.64,58.484,239.18,55.658,239.18Z"/><path d="M91.174,249.236a7.218,7.218,0,0,0-7.225,4.743c-.887-3.2-3.067-4.743-6.618-4.743-3.189,0-5.207,1.541-6.176,4.824v-4.419H64.092v20.637h7.063V260.02c0-3.081,1.211-4.337,3.31-4.337,2.018,0,2.905.932,2.905,3.081v11.514h7.1v-9.406c0-4.054,1.252-5.189,3.27-5.189,2.1,0,2.946,1.135,2.946,3.039v11.556h7.063V258.317C97.753,252.074,95.735,249.236,91.174,249.236Z"/><path d="M116.556,254.588c-1.129-3.527-3.511-5.352-6.982-5.352-5.53,0-8.435,4.3-8.435,10.784,0,6.325,3.107,10.663,8.96,10.663,3.188,0,5.407-1.784,6.457-5.149v4.744h7.063V249.641h-7.063Zm-4.156,9.649c-2.866,0-4.2-1.379-4.2-4.217,0-2.96,1.333-4.337,4.2-4.337,2.986,0,4.358,1.377,4.358,4.337C116.758,262.858,115.386,264.237,112.4,264.237Z"/><path d="M141.819,253.817a7.131,7.131,0,0,0-6.9-4.541c-4.923,0-7.708,3.852-7.708,9.649,0,5.919,2.905,9.893,7.991,9.893a6.871,6.871,0,0,0,6.619-4.257v3.649c0,2.756-1.453,3.811-3.794,3.811-1.937,0-3.552-.325-4-2.432l-6.821,2.675c.847,3.366,5.085,5.312,10.372,5.312,7.064,0,11.26-4.055,11.26-11.109V249.641h-7.022Zm-3.713,8.839c-2.583,0-3.794-1.136-3.794-3.609,0-2.513,1.211-3.608,3.753-3.608,2.664,0,3.915,1.095,3.915,3.608C141.98,261.52,140.77,262.656,138.106,262.656Z"/><path d="M163.005,249.236c-6.336,0-10.574,4.419-10.574,10.906,0,6.325,4.359,10.541,10.776,10.541,5.126,0,8.154-1.986,9.566-5.474l-6.014-2.634c-.969,1.743-1.736,2.229-3.35,2.229-2.059,0-3.108-.77-3.552-2.594h13.32c.04-1.014.04-1.582.04-2.351C173.217,253.533,169.141,249.236,163.005,249.236Zm-3.188,8.433c.323-1.986,1.292-2.8,3.31-2.8s3.067.73,3.188,2.8Z"/><polygon points="72.849 233.289 80.922 233.289 71.78 206.074 61.496 220.07 51.214 206.074 42.072 233.289 50.148 233.289 53.743 221.987 61.497 232.814 69.251 221.987 72.849 233.289"/></svg>