<svg id="Laag_1" data-name="Laag 1" xmlns="http://www.w3.org/2000/svg" viewBox="0 0 597.062 226.602"><defs><style>.cls-1{fill:#fff;}</style></defs><path class="cls-1" d="M162.472,64.239,108.919,44.12a34.551,34.551,0,0,0-44.5,20.194L44.3,117.867a34.551,34.551,0,0,0,20.194,44.5l53.553,20.119a34.552,34.552,0,0,0,44.5-20.194l20.119-53.553A34.552,34.552,0,0,0,162.472,64.239Zm-88,70.014,15.713-41.9L107.858,113.9l17.674-21.551,15.713,41.9Zm72.857-31.807a9.822,9.822,0,1,1,9.822-9.822A9.823,9.823,0,0,1,147.329,102.446Z"/><rect class="cls-1" x="258.24" y="102.308" width="8.928" height="25.966"/><path class="cls-1" d="M262.628,99.656c3.57,0,5.611-1.889,5.611-5.357,0-3.316-2.041-5.153-5.611-5.153-3.52,0-5.509,1.837-5.509,5.153C257.119,97.767,259.057,99.656,262.628,99.656Z"/><path class="cls-1" d="M285.378,130.468c-2.448,0-4.489-.409-5.049-3.061l-8.621,3.366c1.07,4.235,6.427,6.684,13.109,6.684,8.928,0,14.233-5.1,14.233-13.978V102.308h-8.876v5.254a9.016,9.016,0,0,0-8.724-5.714c-6.223,0-9.742,4.847-9.742,12.141,0,7.449,3.671,12.448,10.1,12.448a8.688,8.688,0,0,0,8.367-5.356v4.592C290.174,129.14,288.337,130.468,285.378,130.468Zm.1-11.784c-3.265,0-4.8-1.43-4.8-4.541,0-3.162,1.53-4.54,4.743-4.54,3.367,0,4.949,1.378,4.949,4.54C290.378,117.254,288.848,118.684,285.481,118.684Z"/><path class="cls-1" d="M314.1,115.367c0-3.877,1.531-5.457,4.183-5.457,2.551,0,3.673,1.173,3.673,3.876v14.488h8.978v-15c0-7.805-2.856-11.477-9.029-11.477-4.03,0-6.581,1.939-7.805,6.07v-15.3h-8.928v35.709H314.1Z"/><path class="cls-1" d="M353.935,128.274v-7.805h-6.429V110.113H354.4v-7.8h-6.889v-7.3H338.58v7.3h-4.336v7.8h4.336v8.417c0,5.867,3.877,9.744,9.744,9.744Z"/><path class="cls-1" d="M376.021,102.308l-3.929,13.672-1.225,4.948-1.121-4.948-3.674-13.672h-9.59l9.488,26.832h-7.192v7.806h5.05c7.244,0,10.356-2.7,12.039-7.4l9.794-27.241Z"/><rect class="cls-1" x="402.183" y="102.307" width="8.928" height="25.966"/><path class="cls-1" d="M406.571,89.146c-3.52,0-5.51,1.837-5.51,5.153,0,3.468,1.938,5.357,5.51,5.357s5.611-1.889,5.611-5.357C412.182,90.983,410.142,89.146,406.571,89.146Z"/><path class="cls-1" d="M451.461,101.8c-4.235,0-7.4,1.837-9.132,5.968-1.122-4.029-3.877-5.968-8.365-5.968-4.031,0-6.582,1.939-7.806,6.07v-5.561H417.23v25.967h8.928V115.367c0-3.877,1.531-5.457,4.184-5.457,2.55,0,3.672,1.173,3.672,3.876v14.488h8.978V116.439c0-5.1,1.583-6.529,4.133-6.529,2.652,0,3.724,1.428,3.724,3.825v14.539h8.927V113.225C459.776,105.369,457.225,101.8,451.461,101.8Z"/><path class="cls-1" d="M483.543,108.532c-1.428-4.438-4.438-6.734-8.826-6.734-6.989,0-10.661,5.407-10.661,13.569,0,7.959,3.927,13.416,11.325,13.416,4.029,0,6.835-2.244,8.162-6.477v5.968h8.927V102.307h-8.927Zm-5.254,12.141c-3.622,0-5.307-1.735-5.307-5.306,0-3.724,1.685-5.457,5.307-5.457,3.774,0,5.509,1.733,5.509,5.457C483.8,118.938,482.063,120.673,478.289,120.673Z"/><path class="cls-1" d="M515.473,107.562a9.014,9.014,0,0,0-8.723-5.714c-6.223,0-9.743,4.847-9.743,12.141,0,7.448,3.672,12.448,10.1,12.448a8.685,8.685,0,0,0,8.366-5.357v4.593c0,3.467-1.836,4.795-4.794,4.795-2.449,0-4.491-.409-5.051-3.061l-8.621,3.366c1.071,4.235,6.427,6.684,13.11,6.684,8.928,0,14.232-5.1,14.232-13.978V102.307h-8.876Zm-4.692,11.122c-3.266,0-4.8-1.43-4.8-4.541,0-3.162,1.53-4.54,4.744-4.54,3.366,0,4.949,1.378,4.949,4.54C515.678,117.254,514.148,118.684,510.781,118.684Z"/><path class="cls-1" d="M542.252,101.8c-8.009,0-13.365,5.561-13.365,13.723,0,7.958,5.509,13.262,13.62,13.262,6.479,0,10.305-2.5,12.09-6.886l-7.6-3.316c-1.225,2.194-2.193,2.806-4.234,2.806-2.6,0-3.928-.969-4.489-3.265h16.835c.05-1.275.05-1.989.05-2.958C555.158,107.205,550.007,101.8,542.252,101.8Zm-4.03,10.611c.408-2.5,1.633-3.52,4.184-3.52s3.877.918,4.029,3.52Z"/><polygon class="cls-1" points="244.163 128.364 254.367 128.364 242.812 94.121 229.814 111.731 216.817 94.121 205.262 128.364 215.47 128.364 220.014 114.143 229.814 127.767 239.615 114.143 244.163 128.364"/></svg>